<?xml version="1.0" encoding="iso-8859-1"?>
<!-- Generator: Adobe Illustrator 19.0.0, SVG Export Plug-In . SVG Version: 6.00 Build 0)  -->
<svg xmlns="http://www.w3.org/2000/svg" xmlns:xlink="http://www.w3.org/1999/xlink" version="1.1" id="Capa_1" x="0px" y="0px" viewBox="0 0 512 512" style="enable-background:new 0 0 512 512;" xml:space="preserve">
<path style="fill: #35c9f1;" d="M211.229,112.733c-17.48,4.371-33.952,11.278-49.006,20.312L124.694,108.7l-49.183,49.183  l24.345,37.529c-9.034,15.053-15.941,31.526-20.312,49.006l-38.545,9.88v69.555l38.545,8.76  c4.371,17.48,11.278,33.953,20.312,49.006l-24.345,37.529l49.183,49.183l37.529-24.345c15.054,9.034,31.526,15.941,49.006,20.312  l9.32,37.703h69.555l9.32-37.703c17.48-4.371,33.953-11.278,49.006-20.312l37.529,24.345l49.183-49.183l-24.345-37.529  c9.034-15.053,15.941-31.526,20.313-49.006l39.893-9.32v-69.555l-39.893-9.32c-4.371-17.48-11.279-33.953-20.313-49.006  l24.345-37.529L385.959,108.7l-37.529,24.345c-15.053-9.034-31.526-15.941-49.006-20.312"/>
<path style="fill: #ffffff;" d="M213.616,148.021V65.727h84.769v82.295c59.853,18.155,103.418,73.763,103.418,139.546  c0,80.524-65.278,145.802-145.802,145.802s-145.802-65.278-145.802-145.802C110.198,221.784,153.763,166.177,213.616,148.021z"/>
<rect x="187.66" y="10" style="fill: #ffffff;" width="136.68" height="55.727"/>
<path d="M473.276,244l-34.058-7.956c-3.997-14.037-9.595-27.555-16.7-40.329l21.011-32.389c2.569-3.96,2.02-9.176-1.318-12.514  l-49.184-49.183c-3.337-3.337-8.551-3.887-12.513-1.318l-32.389,21.011c-12.595-7.005-25.916-12.545-39.742-16.531V75.727h15.956  c5.523,0,10-4.477,10-10V10c0-5.523-4.477-10-10-10h-136.68c-5.523,0-10,4.477-10,10v55.727c0,5.523,4.477,10,10,10h15.957v28.681  c-14.308,4.01-28.086,9.682-41.09,16.915l-32.389-21.011c-3.96-2.568-9.175-2.018-12.514,1.318L68.44,150.812  c-3.337,3.337-3.887,8.554-1.318,12.514l21.011,32.389c-7.128,12.816-12.74,26.383-16.74,40.469l-32.878,8.427  c-4.423,1.134-7.517,5.121-7.517,9.687v69.555c0,4.669,3.231,8.717,7.784,9.751l32.662,7.422  c3.996,14.022,9.591,27.528,16.689,40.289l-21.011,32.389c-2.569,3.96-2.02,9.176,1.318,12.513l49.183,49.184  c3.337,3.336,8.554,3.887,12.514,1.318l32.389-21.011c12.798,7.118,26.346,12.725,40.413,16.724l7.902,31.968  c1.104,4.464,5.109,7.6,9.708,7.6h69.555c4.599,0,8.604-3.136,9.708-7.601l7.901-31.967c14.067-3.999,27.615-9.605,40.413-16.724  l32.389,21.011c3.961,2.57,9.176,2.02,12.514-1.318l49.183-49.183c3.337-3.337,3.887-8.554,1.318-12.514l-21.011-32.389  c7.104-12.772,12.703-26.293,16.7-40.329l34.058-7.956c4.524-1.057,7.725-5.091,7.725-9.738v-69.555  C481.001,249.091,477.801,245.057,473.276,244z M197.659,20h116.682v35.727H197.659V20z M288.384,75.727v72.295  c0,4.405,2.882,8.291,7.097,9.569c57.612,17.476,96.321,69.709,96.321,129.976c0,74.882-60.92,135.802-135.802,135.802  s-135.802-60.92-135.802-135.802c0-60.267,38.708-112.5,96.321-129.976c4.215-1.278,7.097-5.165,7.097-9.569V75.727H288.384z   M461.001,315.359l-32.168,7.515c-3.65,0.853-6.517,3.675-7.426,7.312c-4.073,16.287-10.528,31.859-19.186,46.286  c-1.966,3.275-1.894,7.384,0.185,10.588l19.94,30.738l-37.736,37.737l-30.739-19.94c-3.205-2.079-7.313-2.151-10.588-0.185  c-14.425,8.657-29.998,15.112-46.286,19.186c-3.592,0.898-6.393,3.708-7.282,7.302L282.274,492h-53.897l-7.441-30.103  c-0.889-3.594-3.69-6.403-7.282-7.301c-16.288-4.074-31.861-10.529-46.286-19.186c-3.276-1.966-7.384-1.894-10.588,0.185  l-30.738,19.94l-37.737-37.736l19.94-30.739c2.079-3.204,2.151-7.313,0.185-10.588c-8.658-14.426-15.113-29.999-19.186-46.286  c-0.914-3.658-3.809-6.49-7.485-7.326l-30.761-6.991v-53.812l31.028-7.953c3.557-0.912,6.328-3.699,7.218-7.261  c4.073-16.287,10.528-31.859,19.186-46.286c1.966-3.275,1.894-7.384-0.185-10.588l-19.94-30.738l37.736-37.737l30.738,19.941  c3.204,2.078,7.313,2.15,10.588,0.185c11.435-6.862,23.589-12.34,36.248-16.345v15.523c-28.454,10.191-53.863,28.851-72.142,53.119  c-20.461,27.167-31.276,59.55-31.276,93.649c0,85.91,69.893,155.802,155.802,155.802s155.802-69.893,155.802-155.802  c0-34.099-10.815-66.482-31.276-93.649c-18.278-24.268-43.689-42.929-72.142-53.119v-15.09c12.174,3.963,23.871,9.294,34.899,15.912  c3.275,1.965,7.383,1.893,10.588-0.185l30.738-19.941l37.737,37.737l-19.94,30.738c-2.079,3.205-2.15,7.314-0.185,10.588  c8.658,14.426,15.113,29.999,19.186,46.286c0.909,3.637,3.776,6.459,7.426,7.312L461,261.67L461.001,315.359L461.001,315.359z"/>
<path style="fill: #35c9f1;" d="M343.148,228.516c11.455,16.852,18.156,37.184,18.156,59.051  c0,58.065-47.239,105.304-105.304,105.304s-105.304-47.239-105.304-105.304c0-21.868,6.701-42.2,18.156-59.051L343.148,228.516  L343.148,228.516z"/>
<path d="M256,402.871c-63.579,0-115.304-51.725-115.304-115.304c0-23.171,6.876-45.535,19.886-64.673  c1.861-2.739,4.959-4.378,8.27-4.378h174.297c3.312,0,6.409,1.64,8.27,4.378c13.009,19.137,19.885,41.501,19.885,64.673  C371.304,351.146,319.579,402.871,256,402.871z M174.316,238.516c-8.927,14.797-13.62,31.647-13.62,49.051  c0,52.551,42.753,95.304,95.304,95.304s95.304-42.753,95.304-95.304c0-17.405-4.693-34.255-13.62-49.051L174.316,238.516  L174.316,238.516z"/>
<circle style="fill: #35c9f1;" cx="201.42" cy="271.57" r="16.793"/>
<path d="M201.421,298.365c-14.774,0-26.793-12.02-26.793-26.793s12.019-26.793,26.793-26.793s26.793,12.019,26.793,26.793  S216.195,298.365,201.421,298.365z M201.421,264.779c-3.746,0-6.793,3.047-6.793,6.793s3.047,6.793,6.793,6.793  s6.793-3.047,6.793-6.793C208.215,267.826,205.167,264.779,201.421,264.779z"/>
<circle style="fill: #35c9f1;" cx="232.1" cy="331.36" r="20.669"/>
<path d="M232.102,362.031c-16.911,0-30.669-13.758-30.669-30.669s13.758-30.668,30.669-30.668s30.669,13.758,30.669,30.668  C262.771,348.273,249.013,362.031,232.102,362.031z M232.102,320.693c-5.883,0-10.669,4.786-10.669,10.668  c0,5.883,4.786,10.669,10.669,10.669c5.883,0,10.669-4.786,10.669-10.669C242.771,325.479,237.984,320.693,232.102,320.693z"/>
<path d="M319.85,205.03c-2.64,0-5.21-1.06-7.08-2.93c-0.46-0.46-0.87-0.97-1.24-1.52c-0.36-0.54-0.67-1.12-0.92-1.72  c-0.25-0.61-0.44-1.23-0.57-1.87c-0.13-0.65-0.19-1.3-0.19-1.96c0-2.63,1.06-5.21,2.92-7.07c2.33-2.32,5.78-3.39,9.03-2.73  c0.64,0.13,1.27,0.32,1.87,0.57s1.18,0.56,1.73,0.92c0.54,0.36,1.06,0.78,1.52,1.24s0.88,0.97,1.24,1.52  c0.36,0.54,0.67,1.12,0.92,1.73c0.25,0.6,0.44,1.23,0.57,1.87s0.2,1.3,0.2,1.95c0,0.66-0.07,1.31-0.2,1.96  c-0.13,0.64-0.32,1.26-0.57,1.87c-0.25,0.6-0.56,1.18-0.92,1.72c-0.36,0.55-0.78,1.06-1.24,1.52c-0.46,0.461-0.98,0.88-1.52,1.25  c-0.55,0.36-1.13,0.67-1.73,0.92s-1.23,0.44-1.87,0.57C321.15,204.97,320.5,205.03,319.85,205.03z"/>
<path d="M284.321,205.033h-92.167c-5.523,0-10-4.477-10-10s4.477-10,10-10h92.167c5.523,0,10,4.477,10,10  S289.844,205.033,284.321,205.033z"/>
<g>
</g>
<g>
</g>
<g>
</g>
<g>
</g>
<g>
</g>
<g>
</g>
<g>
</g>
<g>
</g>
<g>
</g>
<g>
</g>
<g>
</g>
<g>
</g>
<g>
</g>
<g>
</g>
<g>
</g>
</svg>